<svg width="164" height="164" viewBox="0 0 164 164" fill="none" xmlns="http://www.w3.org/2000/svg">
<mask id="mask0_1_2" style="mask-type:luminance" maskUnits="userSpaceOnUse" x="0" y="0" width="164" height="164">
<path d="M0.661453 0.765625H163.661V163.766H0.661453V0.765625Z" fill="white"/>
</mask>
<g mask="url(#mask0_1_2)">
<path d="M163.667 82.2708C163.667 103.12 155.844 122.141 142.958 136.552C128.036 153.26 106.328 163.771 82.1667 163.771C58 163.771 36.2865 153.26 21.3698 136.552C8.48437 122.141 0.661453 103.12 0.661453 82.2708C0.661453 37.2604 37.1458 0.765625 82.1667 0.765625C127.172 0.765625 163.667 37.2604 163.667 82.2708Z" fill="#B3B3B3"/>
</g>
<path d="M82.1667 97.2812C96.9375 97.2812 110.391 80.5729 110.391 62.2188C110.391 44.8802 107.036 27.7344 82.1667 27.7344C57.2917 27.7344 53.9323 44.8802 53.9323 62.2188C53.9323 80.5729 67.3906 97.2812 82.1667 97.2812Z" fill="#F2F2F2"/>
<mask id="mask1_1_2" style="mask-type:luminance" maskUnits="userSpaceOnUse" x="20" y="94" width="124" height="70">
<path d="M20.6667 94.6667H143.333V163.766H20.6667V94.6667Z" fill="white"/>
</mask>
<g mask="url(#mask1_1_2)">
<path d="M142.958 136.552C128.036 153.26 106.328 163.771 82.1667 163.771C58 163.771 36.2865 153.26 21.3698 136.552C21.1146 126.484 27.8177 103.161 62.0052 95.9844C67.8542 101.953 75.0521 105.328 82.1667 105.328C89.276 105.328 96.4688 101.953 102.318 95.9844C136.516 103.161 143.208 126.484 142.958 136.552Z" fill="#F2F2F2"/>
</g>
</svg>
